# xmcd
#
# Track frame offsets: 
#        150
#        12112
#        27937
#        42125
#        59185
#        75395
#        91995
#        105890
#        121582
#        136352
#
# Disc length: 2040 seconds
#
# Revision: 3
# Processed by: cddbd v1.5.2PL0 Copyright (c) Steve Scherf et al.
# Submitted via: ExactAudioCopyFreeDBPlugin 1.0
#
DISCID=6e07f60a
DTITLE=Lee Greenwood - Love's On The Way
DYEAR=1900
DGENRE=Country
TTITLE0=Before I'm Ever Over You
TTITLE1=In Other Words
TTITLE2=Final Touches
TTITLE3=Linda Lu
TTITLE4=I Never Thought Your Memory Would Last
TTITLE5=I Miss The Romance
TTITLE6=Soldier of Love
TTITLE7=Waitin on the Tables to Turn
TTITLE8=She Wants to be Wanted Again
TTITLE9=Loves on the Way
EXTD=34
EXTT0=
EXTT1=
EXTT2=
EXTT3=
EXTT4=
EXTT5=
EXTT6=
EXTT7=
EXTT8=
EXTT9=
PLAYORDER=
